<svg width="12" height="12" viewBox="0 0 12 12" fill="none" xmlns="http://www.w3.org/2000/svg">
<path d="M11.0021 3.57318L7.95835 3.12943L6.59794 0.371097C6.35419 -0.120569 5.64794 -0.126819 5.4021 0.371097L4.04169 3.12943L0.997937 3.57318C0.452103 3.65234 0.233353 4.32526 0.629187 4.71067L2.83127 6.8565L2.31044 9.88775C2.21669 10.4357 2.79377 10.8461 3.2771 10.5898L6.00002 9.15858L8.72294 10.5898C9.20627 10.844 9.78335 10.4357 9.6896 9.88775L9.16877 6.8565L11.3709 4.71067C11.7667 4.32526 11.5479 3.65234 11.0021 3.57318ZM8.09585 6.5065L8.5896 9.38983L6.00002 8.02942L3.41044 9.38983L3.90419 6.5065L1.80835 4.46484L4.70419 4.04401L6.00002 1.41901L7.29585 4.04401L10.1917 4.46484L8.09585 6.5065Z" fill="white"/>
</svg>
